<svg width="20" height="20" viewBox="0 0 20 20" fill="none" xmlns="http://www.w3.org/2000/svg">
<path d="M19.6081 9.61574C19.6081 9.61574 19.608 9.61574 19.608 9.61574C19.3923 9.61574 19.2175 9.79047 19.2174 10.0061C19.2161 12.4664 18.2574 14.7794 16.5176 16.5191C14.7767 18.26 12.462 19.2188 9.99994 19.2188C7.53787 19.2188 5.22326 18.26 3.48229 16.519C1.74135 14.7781 0.782559 12.4634 0.782559 10.0013C0.782559 7.53926 1.74131 5.22457 3.48229 3.48363C6.27611 0.689767 10.5328 -0.0147251 14.0746 1.73051C14.2679 1.82582 14.5022 1.74625 14.5975 1.55281C14.6929 1.35934 14.6133 1.1252 14.4198 1.02985C10.5779 -0.863319 5.96049 -0.0991394 2.92998 2.93129C1.0415 4.81977 0.00146484 7.33059 0.00146484 10.0013C0.00146484 12.672 1.0415 15.1829 2.92994 17.0714C4.81846 18.9599 7.32932 19.9999 10 19.9999C12.6707 19.9999 15.1816 18.9598 17.0701 17.0714C18.9571 15.1843 19.9972 12.6752 19.9985 10.0065C19.9986 9.79078 19.8239 9.61586 19.6081 9.61574Z" fill="white"/>
</svg>
