<svg width="10" height="11" viewBox="0 0 10 11" fill="none" xmlns="http://www.w3.org/2000/svg">
<path d="M5.778 10.09C4.842 10.09 4.002 9.886 3.258 9.478C2.526 9.07 1.95 8.5 1.53 7.768C1.11 7.024 0.9 6.19 0.9 5.266C0.9 4.342 1.11 3.514 1.53 2.782C1.95 2.05 2.526 1.48 3.258 1.072C4.002 0.663999 4.842 0.459999 5.778 0.459999C6.594 0.459999 7.32 0.622 7.956 0.946C8.604 1.258 9.114 1.72 9.486 2.332L8.532 2.98C8.22 2.512 7.824 2.164 7.344 1.936C6.864 1.696 6.342 1.576 5.778 1.576C5.094 1.576 4.476 1.732 3.924 2.044C3.384 2.344 2.958 2.776 2.646 3.34C2.346 3.904 2.196 4.546 2.196 5.266C2.196 5.998 2.346 6.646 2.646 7.21C2.958 7.762 3.384 8.194 3.924 8.506C4.476 8.806 5.094 8.956 5.778 8.956C6.342 8.956 6.864 8.842 7.344 8.614C7.824 8.386 8.22 8.038 8.532 7.57L9.486 8.218C9.114 8.83 8.604 9.298 7.956 9.622C7.308 9.934 6.582 10.09 5.778 10.09Z" fill="white"/>
</svg>
